<?xml version="1.0" encoding="UTF-8"?>
<svg xmlns="http://www.w3.org/2000/svg" xmlns:xlink="http://www.w3.org/1999/xlink" width="14pt" height="14pt" viewBox="0 0 14 14" version="1.1">
<g id="surface1">
<path style=" stroke:none;fill-rule:nonzero;fill:rgb(85.490196%,85.882353%,86.27451%);fill-opacity:1;" d="M 7 14 C 10.859375 14 14 10.859375 14 7 C 14 3.140625 10.859375 0 7 0 C 3.140625 0 0 3.140625 0 7 C 0 10.859375 3.140625 14 7 14 Z M 7 0.566406 C 10.546875 0.566406 13.433594 3.453125 13.433594 7 C 13.433594 10.546875 10.546875 13.433594 7 13.433594 C 3.453125 13.433594 0.566406 10.546875 0.566406 7 C 0.566406 3.453125 3.453125 0.566406 7 0.566406 Z M 7 0.566406 "/>
<path style=" stroke:none;fill-rule:nonzero;fill:rgb(23.529412%,57.254902%,79.215686%);fill-opacity:1;" d="M 6.003906 9.324219 C 6.058594 9.378906 6.132812 9.40625 6.203125 9.40625 C 6.277344 9.40625 6.351562 9.378906 6.40625 9.324219 L 8.53125 7.199219 C 8.585938 7.144531 8.613281 7.074219 8.613281 7 C 8.613281 6.925781 8.585938 6.855469 8.53125 6.800781 L 6.40625 4.675781 C 6.292969 4.5625 6.117188 4.5625 6.003906 4.675781 C 5.894531 4.785156 5.894531 4.964844 6.003906 5.074219 L 7.929688 7 L 6.003906 8.925781 C 5.894531 9.035156 5.894531 9.214844 6.003906 9.324219 Z M 6.003906 9.324219 "/>
</g>
</svg>
