<?xml version="1.0" encoding="UTF-8"?>
<svg xmlns="http://www.w3.org/2000/svg" xmlns:xlink="http://www.w3.org/1999/xlink" width="18pt" height="18pt" viewBox="0 0 18 18" version="1.1">
<g id="surface1">
<path style=" stroke:none;fill-rule:nonzero;fill:rgb(100%,100%,100%);fill-opacity:1;" d="M 8.933594 9.699219 C 8.953125 9.699219 8.972656 9.699219 8.992188 9.699219 C 9.003906 9.699219 9.011719 9.699219 9.015625 9.699219 C 9.027344 9.699219 9.042969 9.699219 9.054688 9.699219 C 10.144531 9.679688 11.027344 9.296875 11.683594 8.5625 C 13.117188 6.945312 12.878906 4.167969 12.851562 3.90625 C 12.757812 1.917969 11.820312 0.96875 11.046875 0.523438 C 10.464844 0.195312 9.789062 0.015625 9.039062 0 L 9.015625 0 C 9.011719 0 9.003906 0 8.996094 0 L 8.976562 0 C 8.5625 0 7.75 0.0664062 6.972656 0.507812 C 6.1875 0.953125 5.234375 1.90625 5.140625 3.90625 C 5.117188 4.167969 4.875 6.945312 6.3125 8.5625 C 6.960938 9.296875 7.84375 9.679688 8.933594 9.699219 Z M 6.132812 4 C 6.132812 3.988281 6.136719 3.976562 6.136719 3.96875 C 6.261719 1.296875 8.160156 1.007812 8.972656 1.007812 L 8.984375 1.007812 C 8.992188 1.007812 9.007812 1.007812 9.015625 1.007812 C 10.023438 1.035156 11.734375 1.441406 11.851562 3.96875 C 11.851562 3.980469 11.851562 3.992188 11.855469 4 C 11.859375 4.023438 12.117188 6.558594 10.933594 7.894531 C 10.460938 8.421875 9.835938 8.683594 9.015625 8.695312 C 9.007812 8.695312 9.003906 8.695312 8.992188 8.695312 C 8.984375 8.695312 8.984375 8.695312 8.976562 8.695312 C 8.15625 8.683594 7.527344 8.421875 7.058594 7.894531 C 5.878906 6.566406 6.132812 4.023438 6.132812 4 Z M 6.132812 4 "/>
<path style=" stroke:none;fill-rule:nonzero;fill:rgb(100%,100%,100%);fill-opacity:1;" d="M 16.652344 14.296875 C 16.652344 14.292969 16.652344 14.289062 16.652344 14.289062 C 16.652344 14.257812 16.648438 14.226562 16.648438 14.191406 C 16.628906 13.457031 16.578125 11.730469 14.960938 11.179688 C 14.953125 11.175781 14.933594 11.171875 14.921875 11.167969 C 13.242188 10.742188 11.847656 9.769531 11.828125 9.757812 C 11.605469 9.597656 11.292969 9.652344 11.128906 9.882812 C 10.96875 10.109375 11.023438 10.421875 11.253906 10.582031 C 11.316406 10.628906 12.800781 11.65625 14.65625 12.136719 C 15.523438 12.445312 15.625 13.375 15.648438 14.222656 C 15.648438 14.257812 15.648438 14.289062 15.652344 14.316406 C 15.65625 14.652344 15.632812 15.171875 15.574219 15.46875 C 14.96875 15.8125 12.601562 17 9.003906 17 C 5.417969 17 3.035156 15.808594 2.425781 15.464844 C 2.367188 15.167969 2.339844 14.648438 2.347656 14.3125 C 2.347656 14.285156 2.351562 14.253906 2.351562 14.21875 C 2.375 13.371094 2.476562 12.441406 3.34375 12.132812 C 5.199219 11.65625 6.683594 10.621094 6.746094 10.578125 C 6.976562 10.417969 7.03125 10.105469 6.871094 9.878906 C 6.707031 9.648438 6.394531 9.59375 6.171875 9.757812 C 6.152344 9.765625 4.765625 10.738281 3.078125 11.164062 C 3.058594 11.167969 3.046875 11.171875 3.039062 11.175781 C 1.421875 11.730469 1.371094 13.457031 1.351562 14.1875 C 1.351562 14.222656 1.351562 14.253906 1.347656 14.285156 C 1.347656 14.289062 1.347656 14.289062 1.347656 14.292969 C 1.34375 14.488281 1.339844 15.484375 1.535156 15.980469 C 1.570312 16.082031 1.640625 16.160156 1.730469 16.21875 C 1.84375 16.292969 4.519531 18 9.007812 18 C 13.488281 18 16.167969 16.289062 16.28125 16.21875 C 16.367188 16.160156 16.4375 16.082031 16.472656 15.980469 C 16.660156 15.484375 16.65625 14.492188 16.652344 14.296875 Z M 16.652344 14.296875 "/>
</g>
</svg>
