<?xml version="1.0" encoding="UTF-8"?>
<svg xmlns="http://www.w3.org/2000/svg" xmlns:xlink="http://www.w3.org/1999/xlink" width="12pt" height="12pt" viewBox="0 0 12 12" version="1.1">
<g id="surface1">
<path style=" stroke:none;fill-rule:nonzero;fill:rgb(100%,49.019608%,58.431373%);fill-opacity:1;" d="M 5.921875 0 C 2.65625 0 0 2.65625 0 5.921875 C 0 9.1875 2.65625 11.84375 5.921875 11.84375 C 9.1875 11.84375 11.84375 9.1875 11.84375 5.921875 C 11.84375 2.65625 9.1875 0 5.921875 0 Z M 5.921875 11.386719 C 2.90625 11.386719 0.457031 8.933594 0.457031 5.921875 C 0.457031 2.90625 2.90625 0.457031 5.921875 0.457031 C 8.933594 0.457031 11.386719 2.90625 11.386719 5.921875 C 11.386719 8.933594 8.933594 11.386719 5.921875 11.386719 Z M 5.921875 11.386719 "/>
<path style=" stroke:none;fill-rule:nonzero;fill:rgb(100%,49.019608%,58.431373%);fill-opacity:1;" d="M 8.132812 3.710938 C 8.042969 3.621094 7.898438 3.621094 7.808594 3.710938 L 5.921875 5.601562 L 4.035156 3.710938 C 3.945312 3.621094 3.800781 3.621094 3.710938 3.710938 C 3.621094 3.800781 3.621094 3.945312 3.710938 4.035156 L 5.601562 5.921875 L 3.710938 7.808594 C 3.621094 7.898438 3.621094 8.042969 3.710938 8.132812 C 3.757812 8.175781 3.8125 8.195312 3.871094 8.195312 C 3.929688 8.195312 3.988281 8.175781 4.035156 8.132812 L 5.921875 6.242188 L 7.808594 8.132812 C 7.855469 8.175781 7.914062 8.195312 7.972656 8.195312 C 8.03125 8.195312 8.085938 8.175781 8.132812 8.132812 C 8.222656 8.042969 8.222656 7.898438 8.132812 7.808594 L 6.242188 5.921875 L 8.132812 4.035156 C 8.222656 3.945312 8.222656 3.800781 8.132812 3.710938 Z M 8.132812 3.710938 "/>
</g>
</svg>
