<?xml version="1.0" encoding="UTF-8"?>
<svg xmlns="http://www.w3.org/2000/svg" xmlns:xlink="http://www.w3.org/1999/xlink" width="18pt" height="18pt" viewBox="0 0 18 18" version="1.1">
<g id="surface1">
<path style=" stroke:none;fill-rule:nonzero;fill:rgb(100%,100%,100%);fill-opacity:1;" d="M 17.484375 10.953125 C 17.222656 10.953125 17.011719 11.167969 17.011719 11.429688 L 17.011719 15.617188 C 17.011719 16.398438 16.378906 17.03125 15.59375 17.03125 L 2.359375 17.03125 C 1.578125 17.03125 0.945312 16.398438 0.941406 15.617188 L 0.941406 3.320312 C 0.945312 2.542969 1.578125 1.910156 2.359375 1.910156 L 6.546875 1.910156 C 6.808594 1.910156 7.019531 1.699219 7.019531 1.433594 C 7.019531 1.175781 6.808594 0.964844 6.546875 0.964844 L 2.359375 0.964844 C 1.058594 0.96875 0 2.023438 0 3.320312 L 0 15.617188 C 0 16.921875 1.058594 17.976562 2.359375 17.976562 L 15.59375 17.976562 C 16.898438 17.976562 17.953125 16.921875 17.953125 15.617188 L 17.953125 11.429688 C 17.953125 11.167969 17.742188 10.953125 17.484375 10.953125 Z M 17.484375 10.953125 "/>
<path style=" stroke:none;fill-rule:nonzero;fill:rgb(100%,100%,100%);fill-opacity:1;" d="M 7.375 8.472656 L 14.265625 1.585938 L 16.488281 3.808594 L 9.597656 10.695312 Z M 7.375 8.472656 "/>
<path style=" stroke:none;fill-rule:nonzero;fill:rgb(100%,100%,100%);fill-opacity:1;" d="M 6.253906 11.820312 L 8.707031 11.136719 L 6.933594 9.367188 Z M 6.253906 11.820312 "/>
<path style=" stroke:none;fill-rule:nonzero;fill:rgb(100%,100%,100%);fill-opacity:1;" d="M 17.101562 0.417969 C 16.640625 -0.0429688 15.894531 -0.0429688 15.433594 0.417969 L 14.933594 0.917969 L 17.15625 3.140625 L 17.65625 2.640625 C 18.117188 2.179688 18.117188 1.429688 17.65625 0.96875 Z M 17.101562 0.417969 "/>
</g>
</svg>
