<?xml version="1.0" encoding="UTF-8"?>
<svg xmlns="http://www.w3.org/2000/svg" xmlns:xlink="http://www.w3.org/1999/xlink" width="18pt" height="18pt" viewBox="0 0 18 18" version="1.1">
<g id="surface1">
<path style=" stroke:none;fill-rule:nonzero;fill:rgb(100%,100%,100%);fill-opacity:1;" d="M 17.59375 8.167969 L 9.761719 0.335938 C 9.3125 -0.113281 8.582031 -0.113281 8.132812 0.335938 L 6.503906 1.964844 L 8.566406 4.023438 C 9.046875 3.863281 9.59375 3.972656 9.976562 4.355469 C 10.359375 4.738281 10.46875 5.292969 10.304688 5.777344 L 12.289062 7.761719 C 12.773438 7.597656 13.324219 7.703125 13.710938 8.089844 C 14.246094 8.625 14.246094 9.496094 13.710938 10.03125 C 13.171875 10.566406 12.304688 10.566406 11.765625 10.03125 C 11.363281 9.625 11.265625 9.035156 11.46875 8.535156 L 9.617188 6.683594 L 9.617188 11.558594 C 9.746094 11.625 9.867188 11.710938 9.976562 11.820312 C 10.515625 12.359375 10.515625 13.226562 9.976562 13.765625 C 9.4375 14.300781 8.570312 14.300781 8.03125 13.765625 C 7.5 13.226562 7.5 12.359375 8.03125 11.820312 C 8.167969 11.6875 8.320312 11.585938 8.484375 11.519531 L 8.484375 6.597656 C 8.320312 6.53125 8.167969 6.429688 8.03125 6.300781 C 7.628906 5.890625 7.53125 5.292969 7.738281 4.796875 L 5.707031 2.761719 L 0.335938 8.132812 C -0.113281 8.582031 -0.113281 9.3125 0.335938 9.761719 L 8.167969 17.59375 C 8.617188 18.042969 9.347656 18.042969 9.796875 17.59375 L 17.59375 9.800781 C 18.042969 9.347656 18.042969 8.617188 17.59375 8.167969 "/>
</g>
</svg>
