<?xml version="1.0" encoding="UTF-8"?>
<svg xmlns="http://www.w3.org/2000/svg" xmlns:xlink="http://www.w3.org/1999/xlink" width="12pt" height="12pt" viewBox="0 0 12 12" version="1.1">
<g id="surface1">
<path style=" stroke:none;fill-rule:nonzero;fill:rgb(52.156863%,100%,69.411765%);fill-opacity:1;" d="M 5.921875 0 C 2.65625 0 0 2.65625 0 5.921875 C 0 9.1875 2.65625 11.84375 5.921875 11.84375 C 9.1875 11.84375 11.84375 9.1875 11.84375 5.921875 C 11.84375 2.65625 9.1875 0 5.921875 0 Z M 5.921875 11.386719 C 2.90625 11.386719 0.457031 8.933594 0.457031 5.921875 C 0.457031 2.90625 2.90625 0.457031 5.921875 0.457031 C 8.933594 0.457031 11.386719 2.90625 11.386719 5.921875 C 11.386719 8.933594 8.933594 11.386719 5.921875 11.386719 Z M 5.921875 11.386719 "/>
<path style=" stroke:none;fill-rule:nonzero;fill:rgb(52.156863%,100%,69.411765%);fill-opacity:1;" d="M 8.765625 5.695312 L 6.144531 5.695312 L 6.144531 3.1875 C 6.144531 3.0625 6.046875 2.960938 5.921875 2.960938 C 5.792969 2.960938 5.695312 3.0625 5.695312 3.1875 L 5.695312 5.695312 L 3.074219 5.695312 C 2.949219 5.695312 2.847656 5.792969 2.847656 5.921875 C 2.847656 6.046875 2.949219 6.144531 3.074219 6.144531 L 5.695312 6.144531 L 5.695312 8.882812 C 5.695312 9.007812 5.792969 9.105469 5.921875 9.105469 C 6.046875 9.105469 6.144531 9.007812 6.144531 8.882812 L 6.144531 6.144531 L 8.765625 6.144531 C 8.894531 6.144531 8.996094 6.046875 8.996094 5.921875 C 8.996094 5.792969 8.894531 5.695312 8.765625 5.695312 Z M 8.765625 5.695312 "/>
</g>
</svg>
