<?xml version="1.0" encoding="UTF-8"?>
<svg xmlns="http://www.w3.org/2000/svg" xmlns:xlink="http://www.w3.org/1999/xlink" width="12pt" height="12pt" viewBox="0 0 12 12" version="1.1">
<g id="surface1">
<path style=" stroke:none;fill-rule:nonzero;fill:rgb(96.078431%,87.058824%,28.627451%);fill-opacity:1;" d="M 5.921875 0 C 2.65625 0 0 2.65625 0 5.921875 C 0 9.1875 2.65625 11.84375 5.921875 11.84375 C 9.1875 11.84375 11.84375 9.1875 11.84375 5.921875 C 11.84375 2.65625 9.1875 0 5.921875 0 Z M 5.921875 11.386719 C 2.90625 11.386719 0.457031 8.933594 0.457031 5.921875 C 0.457031 2.90625 2.90625 0.457031 5.921875 0.457031 C 8.933594 0.457031 11.386719 2.90625 11.386719 5.921875 C 11.386719 8.933594 8.933594 11.386719 5.921875 11.386719 Z M 5.921875 11.386719 "/>
<path style=" stroke:none;fill-rule:nonzero;fill:rgb(96.078431%,87.058824%,28.627451%);fill-opacity:1;" d="M 8.882812 5.691406 L 2.960938 5.691406 C 2.835938 5.691406 2.730469 5.792969 2.730469 5.921875 C 2.730469 6.046875 2.835938 6.148438 2.960938 6.148438 L 8.882812 6.148438 C 9.007812 6.148438 9.109375 6.046875 9.109375 5.921875 C 9.109375 5.792969 9.007812 5.691406 8.882812 5.691406 Z M 8.882812 5.691406 "/>
</g>
</svg>
