<?xml version="1.0" encoding="UTF-8"?>
<svg xmlns="http://www.w3.org/2000/svg" xmlns:xlink="http://www.w3.org/1999/xlink" width="18pt" height="18pt" viewBox="0 0 18 18" version="1.1">
<g id="surface1">
<path style=" stroke:none;fill-rule:nonzero;fill:rgb(100%,100%,100%);fill-opacity:1;" d="M 15.457031 8.648438 L 3.03125 0.0742188 C 2.898438 -0.015625 2.726562 -0.0234375 2.585938 0.0507812 C 2.445312 0.125 2.355469 0.265625 2.355469 0.429688 L 2.355469 17.570312 C 2.355469 17.730469 2.445312 17.875 2.585938 17.949219 C 2.652344 17.984375 2.71875 18 2.785156 18 C 2.871094 18 2.957031 17.976562 3.03125 17.921875 L 15.457031 9.351562 C 15.574219 9.269531 15.644531 9.140625 15.644531 9 C 15.644531 8.859375 15.574219 8.726562 15.457031 8.648438 Z M 3.214844 16.753906 L 3.214844 1.246094 L 14.460938 9 Z M 3.214844 16.753906 "/>
</g>
</svg>
