<?xml version="1.0" encoding="UTF-8"?>
<svg xmlns="http://www.w3.org/2000/svg" xmlns:xlink="http://www.w3.org/1999/xlink" width="18pt" height="18pt" viewBox="0 0 18 18" version="1.1">
<g id="surface1">
<path style=" stroke:none;fill-rule:nonzero;fill:rgb(100%,100%,100%);fill-opacity:1;" d="M 16.464844 3.015625 C 16.457031 2.777344 16.289062 2.570312 16.046875 2.539062 C 14.9375 2.386719 13.839844 2.121094 12.765625 1.726562 C 11.695312 1.335938 10.515625 0.789062 9.238281 0.0703125 C 9.078125 -0.0195312 8.921875 -0.0234375 8.761719 0.0703125 C 7.496094 0.789062 6.320312 1.332031 5.242188 1.726562 C 4.167969 2.121094 3.074219 2.386719 1.96875 2.539062 C 1.734375 2.570312 1.5625 2.777344 1.539062 3.015625 C 1.429688 7.539062 2.421875 11.242188 4.503906 14.117188 C 5.636719 15.6875 7.050781 16.960938 8.761719 17.929688 C 8.894531 18.027344 9.101562 18.019531 9.257812 17.929688 C 10.953125 16.941406 12.367188 15.679688 13.5 14.117188 C 15.582031 11.242188 16.5625 7.539062 16.464844 3.015625 Z M 12.707031 13.5625 C 11.726562 14.921875 10.492188 16.050781 9 16.960938 C 7.507812 16.050781 6.273438 14.921875 5.292969 13.5625 C 3.40625 10.929688 2.480469 7.558594 2.515625 3.445312 C 3.558594 3.28125 4.589844 3 5.621094 2.617188 C 6.65625 2.238281 7.785156 1.71875 9 1.058594 C 10.214844 1.71875 11.335938 2.238281 12.367188 2.617188 C 13.402344 3 14.441406 3.28125 15.484375 3.445312 C 15.519531 7.582031 14.589844 10.957031 12.707031 13.5625 Z M 12.707031 13.5625 "/>
</g>
</svg>
