<?xml version="1.0" encoding="UTF-8"?>
<svg xmlns="http://www.w3.org/2000/svg" xmlns:xlink="http://www.w3.org/1999/xlink" width="18pt" height="18pt" viewBox="0 0 18 18" version="1.1">
<g id="surface1">
<path style=" stroke:none;fill-rule:nonzero;fill:rgb(100%,100%,100%);fill-opacity:1;" d="M 17.078125 7.113281 L 15.816406 6.898438 C 15.683594 6.472656 15.515625 6.0625 15.308594 5.671875 L 16.050781 4.628906 C 16.367188 4.183594 16.320312 3.578125 15.933594 3.195312 L 14.8125 2.074219 C 14.601562 1.867188 14.324219 1.746094 14.023438 1.746094 C 13.792969 1.746094 13.570312 1.820312 13.382812 1.953125 L 12.335938 2.699219 C 11.933594 2.484375 11.507812 2.308594 11.066406 2.175781 L 10.855469 0.929688 C 10.765625 0.390625 10.304688 0 9.757812 0 L 8.171875 0 C 7.628906 0 7.167969 0.390625 7.078125 0.929688 L 6.859375 2.207031 C 6.4375 2.335938 6.027344 2.511719 5.636719 2.722656 L 4.601562 1.980469 C 4.414062 1.84375 4.1875 1.773438 3.953125 1.773438 C 3.660156 1.773438 3.375 1.886719 3.171875 2.097656 L 2.046875 3.21875 C 1.664062 3.601562 1.609375 4.207031 1.925781 4.652344 L 2.679688 5.710938 C 2.472656 6.101562 2.304688 6.511719 2.175781 6.9375 L 0.929688 7.148438 C 0.390625 7.238281 0 7.699219 0 8.246094 L 0 9.828125 C 0 10.375 0.390625 10.835938 0.929688 10.925781 L 2.207031 11.144531 C 2.335938 11.566406 2.511719 11.976562 2.722656 12.367188 L 1.984375 13.398438 C 1.667969 13.839844 1.714844 14.445312 2.101562 14.828125 L 3.222656 15.949219 C 3.433594 16.160156 3.710938 16.277344 4.007812 16.277344 C 4.238281 16.277344 4.464844 16.207031 4.652344 16.070312 L 5.710938 15.316406 C 6.089844 15.519531 6.484375 15.679688 6.898438 15.804688 L 7.105469 17.070312 C 7.195312 17.609375 7.660156 18 8.207031 18 L 9.789062 18 C 10.335938 18 10.800781 17.609375 10.886719 17.070312 L 11.101562 15.804688 C 11.527344 15.675781 11.9375 15.507812 12.328125 15.300781 L 13.371094 16.046875 C 13.558594 16.179688 13.785156 16.253906 14.015625 16.253906 C 14.316406 16.253906 14.59375 16.132812 14.804688 15.925781 L 15.925781 14.804688 C 16.308594 14.421875 16.363281 13.816406 16.046875 13.371094 L 15.300781 12.324219 C 15.507812 11.933594 15.679688 11.519531 15.804688 11.097656 L 17.070312 10.886719 C 17.609375 10.800781 18 10.335938 18 9.789062 L 18 8.210938 C 18.007812 7.664062 17.617188 7.199219 17.078125 7.113281 Z M 16.992188 9.789062 C 16.992188 9.839844 16.960938 9.882812 16.910156 9.890625 L 15.332031 10.152344 C 15.132812 10.183594 14.972656 10.332031 14.921875 10.527344 C 14.78125 11.078125 14.5625 11.609375 14.269531 12.101562 C 14.167969 12.273438 14.175781 12.488281 14.289062 12.652344 L 15.222656 13.960938 C 15.246094 14 15.242188 14.054688 15.207031 14.089844 L 14.089844 15.207031 C 14.0625 15.238281 14.039062 15.242188 14.015625 15.242188 C 13.996094 15.242188 13.976562 15.234375 13.960938 15.222656 L 12.65625 14.289062 C 12.496094 14.175781 12.277344 14.167969 12.105469 14.269531 C 11.613281 14.5625 11.082031 14.78125 10.53125 14.921875 C 10.332031 14.972656 10.183594 15.132812 10.15625 15.332031 L 9.890625 16.910156 C 9.882812 16.960938 9.839844 16.992188 9.789062 16.992188 L 8.210938 16.992188 C 8.160156 16.992188 8.117188 16.960938 8.109375 16.910156 L 7.847656 15.332031 C 7.816406 15.132812 7.667969 14.972656 7.472656 14.921875 C 6.9375 14.785156 6.417969 14.570312 5.933594 14.289062 C 5.851562 14.25 5.765625 14.222656 5.679688 14.222656 C 5.574219 14.222656 5.46875 14.257812 5.386719 14.320312 L 4.066406 15.253906 C 4.050781 15.265625 4.03125 15.273438 4.011719 15.273438 C 3.996094 15.273438 3.964844 15.269531 3.941406 15.242188 L 2.820312 14.121094 C 2.789062 14.089844 2.78125 14.039062 2.808594 13.996094 L 3.734375 12.699219 C 3.851562 12.53125 3.855469 12.316406 3.753906 12.144531 C 3.460938 11.65625 3.238281 11.125 3.09375 10.570312 C 3.039062 10.378906 2.882812 10.230469 2.6875 10.199219 L 1.097656 9.929688 C 1.046875 9.921875 1.015625 9.878906 1.015625 9.828125 L 1.015625 8.246094 C 1.015625 8.199219 1.046875 8.15625 1.097656 8.148438 L 2.664062 7.886719 C 2.867188 7.851562 3.027344 7.707031 3.078125 7.507812 C 3.214844 6.957031 3.429688 6.421875 3.71875 5.929688 C 3.820312 5.757812 3.808594 5.542969 3.691406 5.382812 L 2.757812 4.0625 C 2.726562 4.027344 2.734375 3.96875 2.765625 3.9375 L 3.886719 2.816406 C 3.914062 2.792969 3.941406 2.789062 3.957031 2.789062 C 3.984375 2.789062 4 2.796875 4.015625 2.804688 L 5.3125 3.730469 C 5.476562 3.847656 5.695312 3.851562 5.871094 3.75 C 6.359375 3.460938 6.886719 3.234375 7.441406 3.089844 C 7.632812 3.039062 7.78125 2.878906 7.816406 2.6875 L 8.085938 1.09375 C 8.09375 1.042969 8.132812 1.011719 8.179688 1.011719 L 9.765625 1.011719 C 9.816406 1.011719 9.855469 1.042969 9.859375 1.09375 L 10.125 2.660156 C 10.160156 2.863281 10.308594 3.023438 10.5 3.074219 C 11.070312 3.214844 11.613281 3.4375 12.113281 3.734375 C 12.289062 3.835938 12.5 3.828125 12.667969 3.710938 L 13.964844 2.777344 C 13.984375 2.765625 14.003906 2.757812 14.019531 2.757812 C 14.039062 2.757812 14.066406 2.761719 14.09375 2.792969 L 15.210938 3.910156 C 15.246094 3.945312 15.25 3.996094 15.226562 4.039062 L 14.292969 5.34375 C 14.179688 5.503906 14.171875 5.722656 14.273438 5.894531 C 14.566406 6.386719 14.78125 6.917969 14.925781 7.46875 C 14.976562 7.667969 15.136719 7.816406 15.335938 7.84375 L 16.914062 8.109375 C 16.960938 8.117188 16.996094 8.160156 16.996094 8.210938 L 16.996094 9.789062 Z M 16.992188 9.789062 "/>
<path style=" stroke:none;fill-rule:nonzero;fill:rgb(100%,100%,100%);fill-opacity:1;" d="M 9.003906 5.117188 C 6.859375 5.117188 5.117188 6.855469 5.117188 8.996094 C 5.117188 11.140625 6.859375 12.882812 9.003906 12.882812 C 11.144531 12.882812 12.882812 11.140625 12.882812 8.996094 C 12.882812 6.855469 11.144531 5.117188 9.003906 5.117188 Z M 9.003906 11.867188 C 7.417969 11.867188 6.132812 10.582031 6.132812 8.996094 C 6.132812 7.414062 7.417969 6.128906 9.003906 6.128906 C 10.585938 6.128906 11.871094 7.414062 11.871094 8.996094 C 11.871094 10.582031 10.585938 11.867188 9.003906 11.867188 Z M 9.003906 11.867188 "/>
</g>
</svg>
